<svg width="38" height="38" viewBox="0 0 38 38" fill="none" xmlns="http://www.w3.org/2000/svg">
<path d="M6.84001 3.04004C4.75037 3.04004 3.04001 4.7504 3.04001 6.84004V31.16C3.04001 33.2497 4.75037 34.96 6.84001 34.96H19.6323C19.7144 34.9736 19.7982 34.9736 19.8802 34.96H24.1923C24.2744 34.9736 24.3582 34.9736 24.4402 34.96H31.16C33.2496 34.96 34.96 33.2497 34.96 31.16V6.84004C34.96 4.7504 33.2496 3.04004 31.16 3.04004H6.84001ZM6.84001 4.56004H31.16C32.4281 4.56004 33.44 5.57199 33.44 6.84004V31.16C33.44 32.4281 32.4281 33.44 31.16 33.44H25.08V22.8H27.9834L29.0477 17.48H25.08V15.96C25.08 15.5363 25.1203 15.5032 25.2626 15.4108C25.4048 15.3184 25.8444 15.2 26.6 15.2H28.88V10.9206L28.4466 10.7143C28.4466 10.7143 26.7008 9.88003 24.32 9.88003C22.61 9.88003 21.2052 10.5613 20.3063 11.685C19.4073 12.8087 19 14.3134 19 15.96V17.48H16.72V22.8H19V33.44H6.84001C5.57196 33.44 4.56001 32.4281 4.56001 31.16V6.84003C4.56001 5.57199 5.57196 4.56004 6.84001 4.56004ZM24.32 11.4C25.9001 11.4 26.8944 11.7485 27.36 11.9329V13.68H26.6C25.7254 13.68 25.0245 13.7524 24.4343 14.1357C23.8441 14.5191 23.56 15.2468 23.56 15.96V19H27.1923L26.7366 21.28H23.56V33.44H20.52V21.28H18.24V19H20.52V15.96C20.52 14.5667 20.8727 13.4113 21.4938 12.635C22.1148 11.8587 22.99 11.4 24.32 11.4Z" fill="#C2EFD4"/>
</svg>
