<svg width="35" height="35" viewBox="0 0 35 35" fill="none" xmlns="http://www.w3.org/2000/svg">
<g clip-path="url(#clip0_1_311)">
<path d="M23.9531 3.82812C19.7668 3.82812 16.3625 7.23242 16.3625 11.4188C16.3625 11.6703 16.4254 11.9164 16.45 12.1625C11.2738 11.6676 6.69648 9.17383 3.58749 5.35938C3.44257 5.17617 3.21835 5.07774 2.98319 5.09414C2.75077 5.11055 2.54296 5.24453 2.42812 5.44688C1.7746 6.5707 1.39999 7.86407 1.39999 9.25313C1.39999 10.9348 2.00156 12.4742 2.93124 13.7375C2.75077 13.6582 2.5539 13.6145 2.38437 13.5188C2.16835 13.4039 1.90858 13.4094 1.69804 13.5352C1.48749 13.6609 1.35897 13.8879 1.35624 14.1313V14.2188C1.35624 16.7973 2.69062 19.0367 4.65937 20.4094C4.63749 20.4066 4.61562 20.4148 4.59374 20.4094C4.35312 20.3684 4.10975 20.4531 3.94843 20.6363C3.7871 20.8195 3.73515 21.0738 3.80625 21.3063C4.58828 23.7371 6.58437 25.5938 9.05625 26.2719C7.0875 27.4422 4.80429 28.1313 2.34062 28.1313C1.80742 28.1313 1.29609 28.1039 0.787497 28.0438C0.459372 28 0.144918 28.1914 0.035543 28.5031C-0.076569 28.8148 0.046484 29.1621 0.328122 29.3344C3.48633 31.3605 7.23516 32.55 11.2656 32.55C17.798 32.55 22.9223 29.8211 26.3594 25.9219C29.7965 22.0227 31.5875 16.9586 31.5875 12.2281C31.5875 12.0285 31.5711 11.8344 31.5656 11.6375C32.848 10.6559 33.9938 9.50469 34.8906 8.15938C35.0684 7.89961 35.0492 7.55234 34.8441 7.31172C34.6418 7.07109 34.3 6.99726 34.0156 7.13125C33.6547 7.29258 33.2336 7.30899 32.8563 7.4375C33.3539 6.77305 33.7805 6.05664 34.0375 5.25C34.125 4.97383 34.0293 4.67032 33.8023 4.48984C33.5754 4.31211 33.2582 4.29023 33.0094 4.44063C31.8145 5.14883 30.491 5.64649 29.0938 5.95C27.7375 4.68125 25.952 3.82812 23.9531 3.82812ZM23.9531 5.22813C25.7387 5.22813 27.3519 5.99101 28.4812 7.19688C28.6508 7.37188 28.8996 7.4457 29.1375 7.39375C30.0508 7.21328 30.9176 6.94805 31.7625 6.60625C31.2758 7.2625 30.6742 7.82305 29.9687 8.24688C29.6488 8.40274 29.4984 8.77187 29.616 9.1082C29.7309 9.4418 30.0809 9.63594 30.4281 9.55938C31.1281 9.47461 31.7516 9.19024 32.4187 9.0125C31.8199 9.66055 31.1637 10.2457 30.45 10.7625C30.2559 10.9047 30.1492 11.1344 30.1656 11.375C30.1766 11.6594 30.1875 11.941 30.1875 12.2281C30.1875 16.6031 28.5086 21.3527 25.3094 24.9813C22.1102 28.6098 17.4125 31.15 11.2656 31.15C8.47382 31.15 5.83788 30.532 3.45624 29.4438C6.40937 29.2168 9.13281 28.1723 11.3312 26.4469C11.5609 26.2637 11.6512 25.9574 11.5582 25.6785C11.4652 25.3996 11.2082 25.2082 10.9156 25.2C8.60781 25.159 6.6746 23.8164 5.64374 21.9188C5.68202 21.9188 5.71483 21.9188 5.75312 21.9188C6.44491 21.9188 7.1285 21.8313 7.76562 21.6563C8.07187 21.566 8.28241 21.2816 8.27148 20.9617C8.26054 20.6418 8.03359 20.3684 7.72187 20.3C5.23085 19.7969 3.36327 17.768 2.93124 15.2469C3.63671 15.4902 4.35858 15.6816 5.14062 15.7063C5.46054 15.7254 5.75038 15.5258 5.84882 15.2223C5.94726 14.9188 5.82694 14.5852 5.55624 14.4156C3.89374 13.3027 2.79999 11.4078 2.79999 9.25313C2.79999 8.45469 3.00781 7.72188 3.28124 7.02188C6.78124 10.8637 11.6812 13.4148 17.2156 13.6938C17.4344 13.7047 17.6477 13.6145 17.7898 13.4477C17.932 13.2781 17.9867 13.0539 17.9375 12.8406C17.8309 12.3867 17.7625 11.9055 17.7625 11.4188C17.7625 7.98984 20.5242 5.22813 23.9531 5.22813Z" fill="#C2EFD4"/>
</g>
<defs>
<clipPath id="clip0_1_311">
<rect width="35" height="35" fill="white"/>
</clipPath>
</defs>
</svg>
